<?xml version="1.0" standalone="no"?>
<!DOCTYPE svg PUBLIC "-//W3C//DTD SVG 20010904//EN"
 "http://www.w3.org/TR/2001/REC-SVG-20010904/DTD/svg10.dtd">
<svg version="1.0" xmlns="http://www.w3.org/2000/svg"
 width="378.000000pt" height="378.000000pt" viewBox="0 0 378.000000 378.000000"
 preserveAspectRatio="xMidYMid meet">
<metadata>
Created by potrace 1.11, written by Peter Selinger 2001-2013
</metadata>
<g transform="translate(0.000000,378.000000) scale(0.100000,-0.100000)"
fill="#000000" stroke="none">
<path d="M1430 3743 c-8 -13 -13 -14 -16 -6 -4 10 -9 9 -21 -2 -12 -12 -18
-13 -29 -4 -8 7 -14 7 -14 2 0 -6 -14 -9 -32 -7 -17 2 -38 -2 -46 -9 -11 -8
-14 -9 -9 0 5 8 1 11 -12 10 -11 0 -17 -5 -15 -9 8 -13 -11 -9 -25 5 -9 7 -11
7 -8 1 8 -14 -20 -27 -28 -13 -4 5 -11 7 -16 4 -5 -4 -9 -1 -9 4 0 6 -5 11
-11 11 -5 0 -7 -4 -4 -10 3 -5 2 -10 -4 -10 -5 0 -13 5 -16 10 -8 13 -25 13
-25 -1 0 -5 5 -7 12 -3 7 4 8 3 4 -5 -6 -8 -12 -9 -20 -2 -7 6 -16 8 -19 4 -4
-3 -7 -1 -7 6 0 7 -5 9 -10 6 -6 -4 -8 -11 -5 -16 3 -5 -1 -6 -9 -3 -9 3 -14
10 -11 14 3 5 1 11 -4 14 -5 4 -13 1 -17 -5 -5 -8 -3 -9 7 -4 8 5 10 4 6 0
-11 -13 -37 -15 -37 -3 0 6 -6 5 -15 -2 -12 -10 -15 -10 -15 1 0 12 -2 12 -9
0 -7 -11 -9 -11 -14 0 -5 11 -9 10 -20 -3 -8 -10 -17 -15 -20 -11 -4 3 -7 1
-7 -6 0 -7 -5 -9 -10 -6 -6 3 -13 -1 -16 -9 -3 -9 -10 -14 -15 -11 -4 3 -6 -3
-4 -14 3 -15 0 -18 -12 -14 -13 5 -15 2 -10 -11 4 -9 3 -15 -1 -12 -4 2 -16
-3 -27 -11 -20 -16 -20 -16 0 -9 11 4 -8 -20 -43 -53 -34 -33 -55 -58 -45 -55
10 3 6 -3 -9 -12 -16 -10 -28 -25 -28 -32 0 -7 -4 -11 -9 -7 -10 6 -37 -33
-33 -47 1 -4 -5 -5 -14 -1 -9 3 -14 0 -12 -7 2 -8 -8 -19 -22 -27 -14 -7 -21
-13 -17 -13 5 0 2 -6 -5 -14 -7 -7 -19 -23 -27 -34 -8 -12 -19 -18 -25 -15 -6
3 -8 2 -3 -2 4 -5 -1 -17 -10 -28 -11 -12 -12 -17 -4 -12 10 6 12 4 7 -4 -5
-7 -14 -10 -22 -7 -8 3 -13 2 -13 -2 3 -21 -2 -32 -12 -26 -7 4 -10 2 -7 -6 5
-16 -109 -133 -122 -125 -5 3 -10 2 -10 -4 0 -5 -3 -17 -7 -27 -5 -13 -3 -15
8 -9 8 5 5 -2 -6 -15 -11 -13 -15 -20 -8 -17 6 4 14 3 18 -3 3 -5 -2 -10 -12
-10 -15 0 -16 -2 -3 -10 12 -8 12 -10 1 -10 -11 0 -11 -3 -1 -15 10 -12 10
-15 0 -15 -10 0 -10 -3 -1 -14 9 -11 9 -15 -1 -18 -11 -4 -11 -8 0 -20 9 -11
10 -18 2 -23 -6 -3 -8 -11 -5 -16 4 -5 0 -9 -7 -9 -9 0 -9 -3 2 -10 13 -9 13
-11 0 -20 -13 -9 -13 -10 0 -10 13 0 13 -1 0 -10 -12 -8 -13 -11 -1 -19 11 -7
11 -9 0 -14 -12 -4 -11 -7 1 -16 9 -7 10 -11 3 -11 -8 0 -11 -14 -10 -39 2
-23 -2 -37 -7 -34 -5 4 -7 -1 -3 -9 3 -9 3 -19 0 -22 -3 -3 -7 -25 -8 -48 -1
-24 -4 -50 -6 -58 -2 -9 2 -14 11 -12 11 3 11 -1 -3 -16 -9 -10 -14 -22 -10
-25 3 -4 2 -7 -3 -7 -13 0 -13 -70 0 -71 6 0 2 -4 -9 -9 -11 -5 -14 -9 -7 -9
9 -1 10 -7 4 -18 -7 -16 -9 -38 -2 -45 5 -7 4 -66 -1 -62 -4 2 -10 -3 -13 -12
-9 -24 -7 -31 4 -14 8 13 10 13 10 -2 0 -9 3 -23 6 -32 3 -9 1 -16 -6 -16 -6
0 -8 5 -4 12 5 7 3 8 -5 4 -9 -6 -8 -13 6 -29 10 -11 12 -17 5 -13 -6 4 -12 2
-12 -3 0 -6 6 -11 13 -11 9 0 9 -2 0 -8 -10 -6 -9 -14 2 -35 8 -15 11 -26 7
-23 -5 3 -14 -4 -21 -16 -7 -11 -8 -17 -2 -14 5 4 12 2 16 -4 3 -5 1 -10 -6
-10 -7 0 -5 -8 6 -20 14 -15 15 -19 4 -15 -10 4 -15 -1 -15 -15 0 -11 4 -20 8
-20 5 0 5 -12 2 -26 -5 -21 -4 -25 7 -20 8 4 3 -2 -11 -14 -14 -12 -20 -19
-13 -16 6 4 14 2 18 -4 3 -5 0 -10 -7 -10 -9 0 -9 -3 2 -10 9 -6 11 -10 3 -10
-7 0 -10 -7 -7 -15 4 -8 10 -12 15 -9 5 3 9 3 9 -1 0 -3 -10 -10 -22 -15 -15
-6 -18 -9 -7 -9 11 -1 15 -9 14 -26 -2 -14 2 -25 8 -25 7 0 5 -5 -3 -10 -11
-7 -11 -10 -2 -10 10 0 10 -5 1 -21 -9 -17 -8 -23 2 -30 11 -7 9 -9 -6 -9 -12
0 -16 -3 -9 -8 6 -4 10 -19 10 -34 -1 -16 3 -28 8 -28 6 0 5 -5 -2 -12 -9 -9
-8 -16 4 -30 15 -16 15 -18 0 -24 -15 -6 -15 -7 1 -20 13 -9 14 -13 4 -14 -10
0 -11 -4 -3 -12 13 -16 13 -20 2 -58 -5 -16 -5 -29 -2 -29 20 3 23 -3 11 -18
-10 -12 -11 -17 -2 -20 6 -2 9 -16 6 -35 -3 -23 -1 -28 9 -22 7 4 5 -2 -5 -13
-11 -13 -14 -23 -8 -27 6 -4 7 -14 4 -23 -5 -12 -3 -14 7 -8 9 5 11 4 6 -4 -4
-6 -2 -19 5 -27 6 -8 9 -17 6 -21 -4 -3 -1 -13 6 -21 9 -13 9 -14 0 -8 -15 8
-17 -3 -3 -24 5 -8 5 -19 0 -25 -10 -12 -2 -57 9 -51 4 3 7 -4 7 -14 0 -11 -6
-16 -16 -13 -10 3 -10 1 3 -7 13 -9 15 -15 7 -31 -8 -13 -8 -19 0 -19 8 0 8
-6 0 -20 -8 -14 -8 -20 0 -20 8 0 8 -6 0 -20 -8 -14 -8 -20 0 -20 7 0 8 -6 1
-19 -6 -10 -7 -21 -4 -25 3 -3 7 -35 8 -70 1 -35 6 -69 10 -76 5 -9 4 -11 -3
-6 -7 4 -12 3 -12 -3 0 -5 6 -12 13 -14 9 -4 9 -6 -1 -6 -10 -1 -10 -6 -2 -21
8 -15 8 -20 -2 -21 -7 0 -4 -4 7 -9 11 -5 15 -9 9 -9 -6 -1 -12 -12 -12 -26 0
-13 4 -22 9 -19 5 3 9 0 9 -5 0 -6 -6 -11 -12 -11 -9 0 -10 -3 -2 -8 14 -9 24
-62 12 -62 -5 0 -6 -5 -3 -10 4 -6 11 -7 17 -4 7 5 8 2 3 -7 -13 -19 -14 -49
-2 -49 5 0 4 -6 -2 -14 -9 -11 -9 -15 0 -18 7 -2 12 -29 12 -68 1 -67 12 -89
44 -91 11 0 13 -3 5 -6 -9 -4 -7 -10 7 -22 12 -10 17 -21 14 -25 -4 -4 1 -4
11 0 13 5 17 4 13 -3 -5 -7 4 -10 23 -9 17 1 32 -4 34 -11 3 -7 10 -13 16 -13
6 0 8 6 4 13 -6 8 -3 8 9 -1 9 -8 21 -11 27 -7 5 3 10 1 10 -5 0 -8 9 -10 26
-6 15 4 23 3 20 -3 -7 -10 13 -9 31 2 6 4 15 2 19 -4 5 -8 3 -9 -6 -4 -9 5
-11 4 -6 -4 6 -8 12 -9 20 -2 7 6 16 8 20 4 11 -11 46 -10 46 1 0 7 3 7 8 1
11 -16 33 -17 50 -3 13 11 15 11 10 -2 -4 -11 1 -15 17 -15 13 0 20 4 17 10
-3 6 7 2 22 -9 16 -10 25 -13 21 -7 -7 12 34 9 54 -3 5 -4 13 -2 16 4 5 7 11
8 19 1 7 -6 17 -6 26 -1 9 6 20 4 29 -3 12 -9 13 -9 7 1 -4 6 -3 12 3 12 5 0
11 -6 14 -12 3 -10 9 -10 25 -1 11 6 23 9 26 5 12 -11 36 -10 36 1 0 9 2 9 8
0 5 -7 23 -11 45 -9 20 2 37 0 37 -5 0 -6 9 -5 20 1 18 10 24 7 22 -11 -1 -3
5 -6 13 -6 8 0 11 7 7 16 -5 14 -3 14 11 2 9 -7 17 -10 17 -6 0 4 6 2 14 -4
11 -9 16 -9 22 0 5 8 3 9 -6 4 -8 -5 -11 -4 -6 3 4 6 13 9 21 6 8 -4 13 -10
10 -14 -6 -10 21 -7 31 3 12 12 26 8 18 -5 -4 -7 2 -5 14 6 19 16 22 17 27 3
4 -8 17 -14 30 -13 13 0 21 4 19 8 -2 4 0 9 6 13 5 3 10 -2 10 -11 0 -16 1
-16 19 0 14 13 21 14 27 5 5 -8 3 -10 -6 -4 -9 5 -11 4 -6 -3 5 -9 13 -9 26
-2 23 12 33 13 26 1 -7 -10 20 -9 30 2 11 11 26 8 19 -3 -3 -6 1 -7 9 -4 9 3
13 10 10 15 -3 5 2 6 10 3 9 -3 14 -9 12 -13 -2 -3 7 -6 20 -6 16 0 22 5 19
13 -3 9 0 10 13 3 11 -6 24 -6 35 0 11 7 17 6 17 -1 0 -5 -5 -10 -12 -10 -6 0
-8 -3 -4 -7 4 -5 14 1 22 11 8 11 14 15 14 10 0 -6 7 -11 15 -11 8 0 15 3 15
6 0 3 11 6 24 6 13 0 22 -3 19 -7 -2 -5 1 -8 6 -8 6 0 11 5 11 11 0 7 9 5 24
-4 17 -12 26 -13 35 -4 8 8 11 7 11 -3 0 -10 4 -8 13 5 11 14 16 15 22 5 6
-10 9 -9 16 1 7 11 9 11 9 -1 0 -9 9 -16 20 -17 11 -1 18 2 16 6 -6 10 40 8
50 -2 4 -4 13 -2 21 4 10 9 13 8 13 -1 0 -9 4 -9 13 -2 14 12 35 11 55 -1 7
-5 12 -3 12 4 0 9 3 9 14 0 11 -9 15 -9 19 1 4 10 6 10 6 1 1 -7 6 -13 12 -13
5 0 7 5 4 10 -8 13 17 8 28 -5 4 -6 11 -4 17 5 9 13 10 13 10 0 0 -13 1 -13
10 0 5 8 10 10 10 5 0 -6 9 -11 19 -11 11 0 17 4 15 8 -3 4 0 8 5 8 6 0 11 -4
11 -9 0 -5 11 -8 24 -7 13 0 22 4 20 8 -2 4 0 9 6 13 5 3 10 -2 10 -11 0 -16
1 -16 19 0 14 13 21 14 27 5 5 -8 3 -10 -6 -4 -9 5 -11 4 -6 -3 9 -15 12 -15
30 4 15 14 16 14 16 -3 0 -15 2 -16 10 -3 5 8 10 11 10 6 0 -5 8 -2 17 5 9 8
14 9 10 3 -4 -7 0 -15 8 -18 9 -3 18 1 21 9 3 7 12 11 20 8 8 -3 11 -10 8 -17
-3 -6 1 -3 9 6 11 14 16 15 27 5 10 -9 11 -9 6 0 -4 7 -2 13 3 13 6 0 11 -5
11 -11 0 -5 5 -7 12 -3 17 11 107 10 112 -1 3 -5 5 -4 5 3 1 10 6 10 22 1 15
-8 19 -8 15 0 -4 6 -2 11 3 11 6 0 11 -5 11 -10 0 -7 6 -7 19 0 14 7 21 6 24
-3 4 -8 6 -8 6 2 1 11 6 10 22 -5 l22 -19 -13 25 c-11 21 -11 23 1 13 16 -12
186 -12 207 0 7 5 12 3 12 -4 0 -9 4 -9 15 1 8 6 19 9 25 5 5 -3 10 -2 10 3 0
5 10 8 23 6 12 -1 22 -3 22 -4 0 -1 10 -3 22 -4 12 -2 19 2 16 7 -4 6 3 8 15
5 12 -4 25 -2 28 4 3 5 15 8 25 5 11 -3 17 -1 13 4 -3 5 3 9 13 9 10 1 32 12
48 26 17 15 23 23 15 19 -10 -4 -9 -1 2 8 10 8 15 17 11 20 -3 4 0 14 8 24 12
14 12 16 0 8 -11 -6 -12 -5 -5 6 11 19 14 39 5 39 -11 0 -8 74 4 82 6 5 5 8
-4 8 -11 0 -11 3 -1 15 7 8 9 15 4 15 -5 0 -10 16 -11 35 -1 25 2 33 10 29 7
-4 3 2 -7 14 -13 15 -15 22 -6 22 10 0 10 3 1 14 -9 11 -9 15 1 19 10 4 10 6
1 6 -7 1 -13 6 -13 12 0 5 5 7 11 3 7 -4 7 1 -1 16 -8 15 -8 20 -1 16 16 -10
13 6 -6 34 -15 21 -15 23 0 17 12 -4 14 -1 11 16 -3 12 -5 27 -5 32 3 51 7 71
16 77 6 5 6 8 -2 8 -7 0 -10 7 -7 15 4 9 1 15 -7 15 -8 0 -5 6 7 16 10 8 14
13 8 10 -8 -4 -11 6 -11 29 1 19 6 35 11 35 5 0 2 6 -9 13 -11 9 -14 16 -8 20
6 4 9 20 7 37 -2 17 1 30 7 30 8 0 8 4 0 14 -9 10 -9 16 -1 21 7 5 8 11 1 19
-6 7 -6 17 -1 26 5 9 5 19 -2 27 -8 10 -7 13 3 13 9 0 10 3 3 8 -5 4 -10 18
-10 32 0 14 5 29 10 33 8 6 7 10 -1 13 -8 4 -9 13 -3 29 6 16 5 25 -3 29 -8 3
-8 5 2 5 11 1 11 4 1 16 -7 8 -8 15 -3 15 5 0 10 7 10 15 0 8 -4 15 -9 15 -5
0 -6 5 -3 10 4 6 9 8 13 6 4 -2 7 11 7 30 0 19 -4 34 -10 35 -5 0 -1 4 10 9
18 8 18 9 -5 10 l-25 1 24 19 c19 16 20 20 6 20 -15 0 -15 1 -1 16 21 21 20
30 -1 13 -15 -13 -15 -12 -4 9 6 12 9 22 7 22 -3 0 -1 11 4 24 5 13 6 27 2 30
-9 10 -11 37 -2 31 5 -3 8 5 8 17 -3 47 2 89 10 84 4 -2 8 9 7 25 0 19 -5 29
-15 29 -9 0 -11 3 -4 8 16 11 24 41 12 48 -7 4 -6 9 3 15 12 7 12 9 0 9 -11 0
-11 3 0 17 10 11 10 14 2 9 -7 -4 -13 -2 -13 3 0 6 4 11 8 11 14 0 14 93 0
102 -9 5 -8 8 5 8 14 0 16 4 7 19 -7 14 -7 22 2 27 7 5 8 3 3 -7 -5 -8 -4 -10
0 -6 13 11 15 38 2 30 -6 -4 -8 0 -4 10 4 10 1 17 -6 17 -7 0 -3 7 7 15 11 8
15 15 10 15 -6 0 -11 7 -11 15 0 8 3 12 7 10 4 -2 6 23 6 55 -1 33 2 60 6 60
4 0 5 7 2 15 -4 8 0 23 7 32 11 13 11 15 1 9 -9 -6 -12 -1 -10 18 2 14 7 28
11 32 12 12 8 26 -5 18 -10 -6 -10 -4 0 7 6 7 12 25 12 40 0 15 6 30 13 32 6
3 3 6 -7 6 -15 1 -17 4 -9 12 6 6 9 18 6 25 -3 8 1 22 8 31 12 14 12 16 -1 8
-13 -8 -13 -7 -1 8 11 14 11 17 0 17 -10 0 -10 3 -1 12 16 16 15 31 0 22 -7
-4 -4 3 7 15 16 19 17 24 5 31 -10 6 -11 10 -3 10 7 0 10 7 6 17 -5 12 -3 14
8 8 11 -7 12 -6 3 6 -15 20 -16 61 -1 52 9 -5 9 -3 0 8 -10 12 -10 18 -1 27 9
9 9 12 -3 12 -12 0 -12 2 1 10 11 7 11 10 2 10 -7 0 -10 5 -7 10 4 6 10 8 15
5 5 -3 7 5 5 17 -3 13 -9 24 -15 26 -5 2 -10 12 -10 23 0 10 -4 19 -10 19 -5
0 -10 5 -10 10 0 6 -9 20 -20 32 -11 12 -20 30 -20 40 0 10 -9 23 -20 30 -11
7 -20 19 -20 26 0 7 -7 15 -16 19 -10 4 -12 8 -5 13 7 4 3 11 -12 19 -12 6
-28 25 -36 42 -7 16 -17 27 -22 23 -5 -3 -9 0 -9 6 0 6 -7 18 -15 27 -8 8 -12
20 -8 26 4 6 0 8 -10 4 -12 -4 -18 0 -23 17 -3 13 -15 33 -27 44 -38 36 -48
52 -41 65 4 6 4 9 0 6 -8 -8 -92 70 -88 82 1 5 -5 9 -14 9 -8 0 -13 4 -10 9 3
5 -1 12 -10 15 -8 3 -12 10 -9 16 3 6 -4 14 -17 19 -13 6 -19 10 -14 10 5 1
-1 9 -12 20 -12 10 -18 21 -14 25 4 4 0 6 -8 4 -8 -2 -14 3 -12 10 1 8 -2 11
-7 7 -6 -3 -19 3 -29 13 -10 10 -24 16 -32 14 -7 -3 -10 0 -6 7 6 9 -5 13 -30
10 -4 0 -11 5 -15 13 -7 10 -9 10 -9 1 0 -7 -4 -13 -10 -13 -5 0 -9 6 -7 13 1
6 -6 11 -15 11 -10 -1 -16 3 -15 9 1 6 -4 11 -11 12 -7 0 -16 6 -21 13 -4 7
-23 15 -41 17 -19 3 -36 9 -39 14 -8 12 -111 9 -111 -4 0 -7 -3 -7 -8 0 -11
15 -32 17 -32 2 0 -9 -2 -9 -9 1 -4 8 -11 13 -15 13 -20 -3 -26 0 -20 12 5 8
2 8 -9 -2 -12 -9 -17 -10 -17 -2 0 7 -5 9 -10 6 -6 -4 -7 -11 -4 -17 5 -7 1
-7 -12 0 -11 6 -27 7 -42 1 -21 -8 -23 -7 -18 8 5 16 4 16 -6 3 -8 -9 -28 -14
-50 -13 -21 0 -36 -2 -33 -6 5 -10 -26 -7 -43 3 -7 4 -12 2 -12 -6 0 -8 -3 -9
-8 -3 -9 13 -32 17 -32 6 0 -5 -7 -12 -16 -15 -13 -5 -14 -3 -6 7 9 10 1 13
-38 12 -28 -1 -50 3 -50 7 0 5 -9 4 -20 -2 -15 -8 -20 -8 -20 1 0 8 -5 8 -16
-1 -8 -8 -14 -9 -12 -3 3 9 -5 15 -14 12 -15 -5 -46 -4 -43 1 2 4 -12 7 -32 8
-20 1 -39 5 -42 9 -8 11 -35 10 -43 -2 -5 -6 -8 -6 -8 2 0 12 -30 10 -52 -3
-6 -4 -8 -3 -5 3 3 5 0 10 -8 10 -8 0 -12 -4 -9 -9 3 -4 0 -8 -5 -8 -6 0 -11
5 -11 11 0 8 -6 7 -17 -2 -11 -10 -14 -10 -9 -1 4 6 3 12 -3 12 -5 0 -12 -6
-14 -12 -4 -10 -6 -9 -6 1 -1 11 -4 11 -16 1 -12 -10 -15 -10 -15 1 0 11 -2
11 -10 -1 -9 -13 -10 -13 -10 0 0 13 -1 13 -10 0 -9 -13 -10 -13 -10 0 0 13
-1 13 -10 0 -6 -10 -10 -11 -10 -2 0 6 -5 12 -11 12 -5 0 -7 -5 -3 -11 4 -8 1
-8 -13 -1 -20 11 -41 11 -59 -1 -6 -3 -14 -3 -18 1 -11 10 -30 9 -38 -3 -5 -6
-8 -6 -8 3 0 6 -5 12 -11 12 -5 0 -7 -4 -4 -10 3 -5 1 -10 -4 -10 -6 0 -11 6
-11 13 0 8 -4 7 -10 -3 -6 -10 -10 -11 -10 -2 0 6 -4 12 -10 12 -5 0 -7 -8 -4
-17 5 -16 5 -17 -5 -1 -8 11 -20 15 -42 11 -21 -3 -29 -1 -24 6 3 6 4 11 1 11
-3 0 -10 -8 -16 -17z"/>
</g>
</svg>
